<svg width="122" height="27" viewBox="0 0 122 27" fill="none" xmlns="http://www.w3.org/2000/svg">
<path d="M6.4707 26H0.775391L9.59961 0.546875H16.3848L25.1738 26H19.5137L17.5977 20.1289H8.38672L6.4707 26ZM9.72266 16.0156H16.2617L13.0801 6.27734H12.9043L9.72266 16.0156Z" fill="white"/>
<path d="M24.9434 4.90625V0.546875H45.791V4.90625H37.9863V26H32.748V4.90625H24.9434Z" fill="white"/>
<path d="M63.877 7.82422C63.666 5.80273 62.0664 4.625 59.4824 4.625C56.8105 4.625 55.3164 5.85547 55.2988 7.54297C55.2812 9.38867 57.1797 10.2148 59.377 10.707L61.6621 11.2695C66.0215 12.2715 69.2734 14.4863 69.291 18.7227C69.2734 23.3809 65.6523 26.3691 59.4473 26.3516C53.2949 26.3691 49.375 23.5215 49.2168 18.0547H54.3496C54.5254 20.6211 56.5645 21.9219 59.377 21.9219C62.1543 21.9219 63.9473 20.6211 63.9473 18.7227C63.9473 16.9824 62.3652 16.1738 59.5879 15.4883L56.8105 14.8203C52.5215 13.7656 49.8848 11.6211 49.8848 7.89453C49.8672 3.27148 53.9453 0.195312 59.5176 0.195312C65.1602 0.195312 68.8691 3.32422 68.9395 7.82422H63.877Z" fill="white"/>
<path d="M73.7363 26V0.546875H79.0098V11.0938H90.0488V0.546875H95.3574V26H90.0488V15.4531H79.0098V26H73.7363Z" fill="white"/>
<path d="M116.396 0.546875H121.705V17.0703C121.705 22.6426 117.469 26.3691 111.158 26.3516C104.83 26.3691 100.646 22.6426 100.646 17.0703V0.546875H105.92V16.6484C105.938 19.584 108.012 21.6934 111.158 21.7109C114.34 21.6934 116.414 19.584 116.396 16.6484V0.546875Z" fill="white"/>
</svg>
