<svg width="38" height="26" viewBox="0 0 38 26" fill="none" xmlns="http://www.w3.org/2000/svg">
<path d="M0 4.53145e-07L38 0L38 13.1061C38 20.6673 33.7486 24.4878 28.0276 24.4612C23.2776 24.4878 20.7058 21.7816 19.7873 18.3061L19.4724 18.3061C19.2362 22.0735 15.7983 25.9735 9.97238 26C4.22514 25.9735 2.64173e-07 22.1531 1.64515e-07 13.7959L0 4.53145e-07ZM3.35912 3.76735L3.35912 13.7429C3.35912 19.6327 6.19337 22.3388 10.0249 22.3388C14.2762 22.3388 17.6616 18.9959 17.6878 13.902L17.6878 3.76735L3.35912 3.76735ZM20.942 3.76735L20.942 13.3184C20.942 17.7755 23.8812 20.8531 28.0276 20.8531C31.9116 20.8531 34.6671 18.2531 34.6409 13.0531L34.6409 3.76735L20.942 3.76735Z" fill="white"/>
</svg>
