<svg width="38" height="68" viewBox="0 0 38 68" fill="none" xmlns="http://www.w3.org/2000/svg">
<path d="M0 21L38 21L38 34.1061C38 41.6673 33.7486 45.4878 28.0276 45.4612C23.2776 45.4878 20.7058 42.7816 19.7873 39.3061L19.4724 39.3061C19.2362 43.0735 15.7983 46.9735 9.97238 47C4.22514 46.9735 2.64173e-07 43.1531 1.64515e-07 34.7959L0 21ZM3.35912 24.7673L3.35912 34.7429C3.35912 40.6327 6.19337 43.3388 10.0249 43.3388C14.2762 43.3388 17.6616 39.9959 17.6878 34.902L17.6878 24.7673L3.35912 24.7673ZM20.942 24.7673L20.942 34.3184C20.942 38.7755 23.8812 41.8531 28.0276 41.8531C31.9116 41.8531 34.6671 39.2531 34.6409 34.0531L34.6409 24.7673L20.942 24.7673Z" fill="white"/>
<rect width="38" height="21" fill="black"/>
<rect y="47" width="38" height="21" fill="black"/>
<ellipse cx="11" cy="28" rx="4" ry="6" fill="white"/>
<ellipse cx="28" cy="28" rx="4" ry="6" fill="white"/>
<line x1="9.25" y1="15.75" x2="14.75" y2="15.75" stroke="white" stroke-width="2.5" stroke-linecap="round"/>
<line x1="23.25" y1="15.75" x2="28.75" y2="15.75" stroke="white" stroke-width="2.5" stroke-linecap="round"/>
</svg>
