<svg width="161" height="39" viewBox="0 0 161 39" fill="none" xmlns="http://www.w3.org/2000/svg">
<path d="M0 12L38 12L38 25.1061C38 32.6673 33.7486 36.4878 28.0276 36.4612C23.2776 36.4878 20.7058 33.7816 19.7873 30.3061L19.4724 30.3061C19.2362 34.0735 15.7983 37.9735 9.97238 38C4.22514 37.9735 2.64173e-07 34.1531 1.64515e-07 25.7959L0 12ZM3.35912 15.7673L3.35912 25.7429C3.35912 31.6327 6.19337 34.3388 10.0249 34.3388C14.2762 34.3388 17.6616 30.9959 17.6878 25.902L17.6878 15.7673L3.35912 15.7673ZM20.942 15.7673L20.942 25.3184C20.942 29.7755 23.8812 32.8531 28.0276 32.8531C31.9116 32.8531 34.6671 30.2531 34.6409 25.0531L34.6409 15.7673L20.942 15.7673Z" fill="black"/>
<path d="M45.4707 37.8047H39.7754L48.5996 12.3516H55.3848L64.1738 37.8047H58.5137L56.5977 31.9336H47.3867L45.4707 37.8047ZM48.7227 27.8203H55.2617L52.0801 18.082H51.9043L48.7227 27.8203Z" fill="black"/>
<path d="M63.9434 16.7109V12.3516H84.791V16.7109H76.9863V37.8047H71.748V16.7109H63.9434Z" fill="black"/>
<path d="M102.877 19.6289C102.666 17.6074 101.066 16.4297 98.4824 16.4297C95.8105 16.4297 94.3164 17.6602 94.2988 19.3477C94.2812 21.1934 96.1797 22.0195 98.377 22.5117L100.662 23.0742C105.021 24.0762 108.273 26.291 108.291 30.5273C108.273 35.1855 104.652 38.1738 98.4473 38.1562C92.2949 38.1738 88.375 35.3262 88.2168 29.8594H93.3496C93.5254 32.4258 95.5645 33.7266 98.377 33.7266C101.154 33.7266 102.947 32.4258 102.947 30.5273C102.947 28.7871 101.365 27.9785 98.5879 27.293L95.8105 26.625C91.5215 25.5703 88.8848 23.4258 88.8848 19.6992C88.8672 15.0762 92.9453 12 98.5176 12C104.16 12 107.869 15.1289 107.939 19.6289H102.877Z" fill="black"/>
<path d="M112.736 37.8047V12.3516H118.01V22.8984H129.049V12.3516H134.357V37.8047H129.049V27.2578H118.01V37.8047H112.736Z" fill="black"/>
<path d="M155.396 12.3516H160.705V28.875C160.705 34.4473 156.469 38.1738 150.158 38.1562C143.83 38.1738 139.646 34.4473 139.646 28.875V12.3516H144.92V28.4531C144.938 31.3887 147.012 33.498 150.158 33.5156C153.34 33.498 155.414 31.3887 155.396 28.4531V12.3516Z" fill="black"/>
<ellipse cx="13" cy="18" rx="4" ry="6" fill="black"/>
<ellipse cx="30" cy="18" rx="4" ry="6" fill="black"/>
<line x1="9.25" y1="4.75" x2="14.75" y2="4.75" stroke="black" stroke-width="2.5" stroke-linecap="round"/>
<line x1="23.25" y1="1.75" x2="28.75" y2="1.75" stroke="black" stroke-width="2.5" stroke-linecap="round"/>
</svg>
