<svg xmlns="http://www.w3.org/2000/svg" width="24" height="24" viewBox="0 0 24 24" fill="none">
  <path d="M6.50762 3.822C6.58148 3.62812 6.7674 3.5 6.97487 3.5H17.0251C17.2326 3.5 17.4185 3.62812 17.4924 3.822L19.0162 7.822C19.1409 8.14927 18.8992 8.5 18.5489 8.5H5.45106C5.10085 8.5 4.85914 8.14927 4.98381 7.822L6.50762 3.822Z" stroke="white"/>
  <rect x="2.5" y="10.5" width="19" height="6" rx="0.5" stroke="white"/>
  <circle cx="6.5" cy="13.5" r="1" stroke="white"/>
  <circle cx="17.5" cy="13.5" r="1" stroke="white"/>
  <path d="M4.5 16.5H7.5V20C7.5 20.2761 7.27614 20.5 7 20.5H5C4.72386 20.5 4.5 20.2761 4.5 20V16.5Z" stroke="white"/>
  <path d="M16.5 16.5H19.5V20C19.5 20.2761 19.2761 20.5 19 20.5H17C16.7239 20.5 16.5 20.2761 16.5 20V16.5Z" stroke="white"/>
</svg>