<svg width="288" height="219" viewBox="0 0 288 219" fill="none" xmlns="http://www.w3.org/2000/svg">
<circle cx="157" cy="109" r="107" fill="#2FC1E1" stroke="black" stroke-width="4"/>
<path d="M197 119L208.276 140.421" stroke="black" stroke-width="7" stroke-linecap="round"/>
<path d="M125.506 111.001L109.309 136.773C108.999 137.265 108.337 137.391 107.869 137.046L92.5064 125.732" stroke="black" stroke-width="8" stroke-linecap="round"/>
<mask id="path-4-inside-1_182_8162" fill="white">
<path fill-rule="evenodd" clip-rule="evenodd" d="M129.129 119.091C131.386 115.293 130.136 110.384 126.337 108.127C122.539 105.87 117.63 107.12 115.373 110.919L109.755 120.376C109.191 121.325 109.503 122.553 110.453 123.117L120.77 129.246C121.719 129.81 122.946 129.498 123.51 128.548L129.129 119.091Z"/>
</mask>
<path fill-rule="evenodd" clip-rule="evenodd" d="M129.129 119.091C131.386 115.293 130.136 110.384 126.337 108.127C122.539 105.87 117.63 107.12 115.373 110.919L109.755 120.376C109.191 121.325 109.503 122.553 110.453 123.117L120.77 129.246C121.719 129.81 122.946 129.498 123.51 128.548L129.129 119.091Z" fill="white"/>
<path d="M120.77 129.246L121.536 127.956L120.77 129.246ZM110.453 123.117L109.687 124.406L110.453 123.117ZM125.571 109.417C128.657 111.25 129.673 115.239 127.839 118.325L130.418 119.857C133.098 115.346 131.614 109.517 127.103 106.838L125.571 109.417ZM116.663 111.685C118.497 108.599 122.485 107.583 125.571 109.417L127.103 106.838C122.593 104.158 116.764 105.642 114.084 110.153L116.663 111.685ZM111.045 121.142L116.663 111.685L114.084 110.153L108.465 119.61L111.045 121.142ZM121.536 127.956L111.219 121.827L109.687 124.406L120.003 130.535L121.536 127.956ZM127.839 118.325L122.221 127.782L124.8 129.314L130.418 119.857L127.839 118.325ZM120.003 130.535C121.665 131.523 123.813 130.976 124.8 129.314L122.221 127.782C122.08 128.019 121.773 128.097 121.536 127.956L120.003 130.535ZM108.465 119.61C107.478 121.271 108.025 123.419 109.687 124.406L111.219 121.827C110.982 121.686 110.903 121.379 111.045 121.142L108.465 119.61Z" fill="black" mask="url(#path-4-inside-1_182_8162)"/>
<mask id="path-6-inside-2_182_8162" fill="white">
<path fill-rule="evenodd" clip-rule="evenodd" d="M189.086 121.05C186.829 117.252 188.079 112.343 191.878 110.086C195.676 107.829 200.585 109.079 202.841 112.878L208.46 122.335C209.024 123.284 208.712 124.511 207.762 125.076L197.445 131.205C196.496 131.769 195.269 131.457 194.704 130.507L189.086 121.05Z"/>
</mask>
<path fill-rule="evenodd" clip-rule="evenodd" d="M189.086 121.05C186.829 117.252 188.079 112.343 191.878 110.086C195.676 107.829 200.585 109.079 202.841 112.878L208.46 122.335C209.024 123.284 208.712 124.511 207.762 125.076L197.445 131.205C196.496 131.769 195.269 131.457 194.704 130.507L189.086 121.05Z" fill="white"/>
<path d="M192.644 111.376C189.557 113.209 188.542 117.198 190.376 120.284L187.796 121.816C185.117 117.305 186.601 111.476 191.111 108.797L192.644 111.376ZM201.552 113.644C199.718 110.558 195.73 109.542 192.644 111.376L191.111 108.797C195.622 106.117 201.451 107.601 204.131 112.112L201.552 113.644ZM207.17 123.101L201.552 113.644L204.131 112.112L209.749 121.569L207.17 123.101ZM196.679 129.915L206.996 123.786L208.528 126.365L198.211 132.494L196.679 129.915ZM190.376 120.284L195.994 129.741L193.415 131.273L187.796 121.816L190.376 120.284ZM198.211 132.494C196.55 133.482 194.402 132.935 193.415 131.273L195.994 129.741C196.135 129.978 196.442 130.056 196.679 129.915L198.211 132.494ZM209.749 121.569C210.737 123.23 210.19 125.378 208.528 126.365L206.996 123.786C207.233 123.645 207.311 123.338 207.17 123.101L209.749 121.569Z" fill="black" mask="url(#path-6-inside-2_182_8162)"/>
<path fill-rule="evenodd" clip-rule="evenodd" d="M164.09 132.156C160.585 132.935 158.376 136.407 159.155 139.911L162.028 152.84L131.226 167.373C128.951 168.446 127.5 170.736 127.5 173.251V186.251C127.5 189.841 130.41 192.751 134 192.751C137.59 192.751 140.5 189.841 140.5 186.251V177.372L172.274 162.38C175.021 161.084 176.504 158.057 175.845 155.091L171.845 137.091C171.066 133.587 167.594 131.377 164.09 132.156Z" fill="black" stroke="black" stroke-width="2" stroke-linecap="round" stroke-linejoin="round"/>
<path fill-rule="evenodd" clip-rule="evenodd" d="M150 132C153.59 132 156.5 134.91 156.5 138.5L156.5 195.5C156.5 199.09 153.59 202 150 202C146.41 202 143.5 199.09 143.5 195.5L143.5 138.5C143.5 134.91 146.41 132 150 132Z" fill="black" stroke="black" stroke-width="2" stroke-linecap="round" stroke-linejoin="round"/>
<circle cx="158.5" cy="97" r="45" fill="white"/>
<path d="M161.971 70H167.971" stroke="black" stroke-width="2" stroke-linecap="round"/>
<path d="M147.971 70H153.971" stroke="black" stroke-width="2" stroke-linecap="round"/>
<path d="M157.971 76H135.971H134.971V91C135.971 97 138.971 101 146.971 101C154.971 101 157.637 95 157.971 92V76Z" fill="white"/>
<path d="M179.971 76H158.927H157.971V90.4C158.927 96.16 161.797 100 169.449 100C177.101 100 179.652 94.24 179.971 91.36V76Z" fill="white"/>
<path d="M133.971 74L181.971 74L181.971 88.1223C181.971 95.8559 177.197 100.258 169.706 100.227C163.971 100.258 159.728 97.6594 158.567 93.441L158.302 93.441C157.904 98.1179 153.164 101.969 146.302 102C138.943 101.969 133.971 97.5065 133.971 89.4672L133.971 74ZM136.092 76.0175L136.092 89.4672C136.059 96.0087 140.236 99.9825 146.302 99.9825C152.7 99.9825 157.308 95.6419 157.308 89.4672L157.308 76.0175L136.092 76.0175ZM159.363 76.0175L159.363 89.345C159.396 95.1834 164.07 98.2707 169.706 98.2707C176.103 98.2707 179.882 94.4498 179.915 88.1223L179.915 76.0175L159.363 76.0175Z" fill="black"/>
<path d="M169.971 80C169.971 83.3137 168.732 86 165.971 86C163.209 86 161.971 83.3137 161.971 80C161.971 76.6863 163.209 74 165.971 74C168.732 74 169.971 76.6863 169.971 80Z" fill="black"/>
<path d="M153.971 80C153.971 83.3137 152.732 86 149.971 86C147.209 86 145.971 83.3137 145.971 80C145.971 76.6863 147.209 74 149.971 74C152.732 74 153.971 76.6863 153.971 80Z" fill="black"/>
<path d="M143.5 40C143.5 35.5817 147.082 32 151.5 32H167.5C171.918 32 175.5 35.5817 175.5 40V56H143.5V40Z" fill="black"/>
<path d="M135.5 56H183.5" stroke="black" stroke-width="6" stroke-linecap="round"/>
<path d="M147.5 52H171.5" stroke="white" stroke-width="2" stroke-linecap="round"/>
<circle cx="171.5" cy="96" r="7.29032" fill="#E1FFFD" stroke="black" stroke-width="1.41935"/>
<line x1="167.758" y1="98.3518" x2="169.583" y2="96.527" stroke="white" stroke-width="1.41935" stroke-linecap="round"/>
<line x1="173.5" y1="97.2386" x2="176.739" y2="93.9995" stroke="white" stroke-width="1.41935" stroke-linecap="round"/>
<path d="M177.5 90.3274C179.079 89.6256 182.342 89.5905 182.763 95.0642C183.289 101.906 186.974 104.011 187.5 104.011" stroke="white" stroke-width="2" stroke-miterlimit="4.81765" stroke-linecap="round" stroke-dasharray="4 4"/>
<path fill-rule="evenodd" clip-rule="evenodd" d="M157.166 103.485C156.661 102.804 155.627 102.116 153.779 102.258C151.926 102.401 149.587 103.353 147.406 104.241C145.749 104.916 144.183 105.554 142.992 105.77C141.319 106.188 137.372 106.473 136.971 104.265C136.569 102.057 137.974 101.84 138.476 102.007C138.727 102.091 139.228 102.509 139.228 103.512C139.563 103.429 140.282 103.061 140.483 102.258C140.734 101.254 139.73 100 138.476 100C137.221 100 136.079 100.251 134.713 102.007C132.957 104.265 132.957 110.38 135.716 112.795C135.826 112.891 135.936 112.988 136.045 113.086C137.932 114.762 139.878 116.489 146.755 115.304C152.077 114.386 155.637 114.308 157.166 114.301C158.696 114.308 162.256 114.386 167.578 115.304C174.455 116.489 176.4 114.762 178.288 113.086C178.397 112.988 178.507 112.891 178.617 112.795C181.376 110.38 181.376 104.265 179.62 102.007C178.254 100.251 177.112 100 175.857 100C174.603 100 173.599 101.254 173.85 102.258C174.051 103.061 174.77 103.429 175.105 103.512C175.105 102.509 175.606 102.091 175.857 102.007C176.359 101.84 177.764 102.057 177.362 104.265C176.961 106.473 173.014 106.188 171.341 105.77C170.15 105.554 168.584 104.916 166.927 104.241C164.746 103.353 162.407 102.401 160.554 102.258C158.706 102.116 157.672 102.804 157.166 103.485Z" fill="black"/>
<path d="M133.797 128.507C131.362 126.743 132.085 123.014 132.751 121.37C132.912 120.92 133.131 119.326 135.794 118.936C136.46 118.838 139.122 118.448 139.503 121.043C139.978 124.287 143.113 121.876 146.027 118.074C147.739 115.839 149.126 114.939 151.638 114.6C154.946 114.154 156.432 114.364 155.576 114.711C154.466 114.873 151.48 114.961 149.679 116.238C147.359 117.883 144.765 122.922 143.592 125.745C141.5 130.028 136.84 130.711 133.797 128.507Z" fill="black" stroke="black" stroke-width="0.5" stroke-miterlimit="4.81765" stroke-linecap="round"/>
<ellipse cx="135.678" cy="120.459" rx="1.875" ry="0.590909" transform="rotate(-8.34026 135.678 120.459)" fill="#D9D9D9"/>
<path d="M155.914 126.414C156.695 125.633 157.961 125.633 158.742 126.414C159.523 127.195 159.523 128.462 158.742 129.243C157.961 130.024 156.695 130.024 155.914 129.243C155.133 128.462 155.133 127.195 155.914 126.414Z" fill="white"/>
<path d="M153.423 134.04L156.671 129.228C157.068 128.641 157.932 128.641 158.329 129.228L161.577 134.04C161.827 134.411 161.801 134.903 161.513 135.244L158.264 139.094C157.865 139.568 157.135 139.568 156.736 139.094L153.487 135.244C153.199 134.903 153.173 134.411 153.423 134.04Z" fill="white"/>
<path d="M207 197C207 197.552 207.448 198 208 198C208.552 198 209 197.552 209 197L207 197ZM207 145L207 197L209 197L209 145L207 145Z" fill="black"/>
<circle cx="208" cy="146" r="3" fill="black"/>
<path d="M148 189.5H152" stroke="white" stroke-width="1.5" stroke-linecap="round"/>
<path d="M148 168.5C150 169.5 152 168.5 152 168.5" stroke="white" stroke-width="1.5" stroke-linecap="round"/>
<circle cx="52" cy="212" r="4" fill="black"/>
<circle cx="284" cy="212" r="4" fill="black"/>
<circle cx="236" cy="212" r="4" fill="black"/>
<circle cx="4" cy="212" r="4" fill="black"/>
<path d="M228 199L246 181" stroke="black" stroke-width="4" stroke-linecap="round"/>
<path d="M257.818 217.182C259.575 218.939 262.425 218.939 264.182 217.182C265.939 215.425 265.939 212.575 264.182 210.818L257.818 217.182ZM236.818 196.182L257.818 217.182L264.182 210.818L243.182 189.818L236.818 196.182Z" fill="black"/>
<line x1="120" y1="145.121" x2="102.121" y2="163" stroke="#DAFFFA" stroke-width="3" stroke-linecap="round"/>
<line x1="236" y1="51.1213" x2="218.121" y2="69" stroke="#DAFFFA" stroke-width="3" stroke-linecap="round"/>
<line x1="109" y1="144.121" x2="82.1213" y2="171" stroke="white" stroke-width="3" stroke-linecap="round"/>
<line x1="238" y1="61.1213" x2="211.121" y2="88" stroke="white" stroke-width="3" stroke-linecap="round"/>
</svg>
