<svg width="212" height="127" viewBox="0 0 212 127" fill="none" xmlns="http://www.w3.org/2000/svg">
<path d="M39.6001 124.598V126.758C40.6965 126.758 41.619 125.937 41.7457 124.848L39.6001 124.598ZM33.1201 122.438C31.9272 122.438 30.9601 123.406 30.9601 124.598C30.9601 125.791 31.9272 126.758 33.1201 126.758V122.438ZM41.0546 93.3892L37.4546 124.349L41.7457 124.848L45.3457 93.8882L41.0546 93.3892ZM39.6001 122.438H33.1201V126.758H39.6001V122.438Z" fill="black"/>
<path d="M52.5601 124.599V126.759C53.753 126.759 54.7201 125.792 54.7201 124.599H52.5601ZM46.0801 122.439C44.8871 122.439 43.9201 123.406 43.9201 124.599C43.9201 125.792 44.8871 126.759 46.0801 126.759V122.439ZM50.4001 94.3594V124.599H54.7201V94.3594H50.4001ZM52.5601 122.439H46.0801V126.759H52.5601V122.439Z" fill="black"/>
<path d="M71.0714 48.9789C71.7601 48.5812 72.6439 48.816 73.0106 49.5217C76.7347 56.6892 77.6547 65.009 75.5552 72.8444C73.3312 81.1446 67.901 88.2213 60.4592 92.5178C53.0175 96.8143 44.1737 97.9786 35.8735 95.7546C28.038 93.6551 21.2928 88.6984 16.9475 81.8895C16.5197 81.2191 16.7583 80.3363 17.4471 79.9387L44.2592 64.4588L71.0714 48.9789Z" fill="#00C2FF"/>
<path d="M47.8845 79.1399C47.9388 78.5459 48.4644 78.1084 49.0583 78.1628C49.6523 78.2171 50.0898 78.7427 50.0355 79.3367L47.8845 79.1399ZM50.0355 79.3367C49.8551 81.3079 49.1047 84.217 47.387 86.5631C45.6283 88.9653 42.8378 90.7797 38.7614 90.3295L38.9985 88.1826C42.1797 88.5339 44.2613 87.176 45.6442 85.2871C47.068 83.3424 47.7288 80.8418 47.8845 79.1399L50.0355 79.3367Z" fill="black"/>
<path d="M40.3198 49H44.6398" stroke="black" stroke-width="1.44" stroke-linecap="round"/>
<path d="M31.6799 53.3203H35.9999" stroke="black" stroke-width="1.44" stroke-linecap="round"/>
<path d="M37.7787 58.3613H21.9387H21.2188V69.1613C21.9387 73.4812 24.0987 76.3612 29.8587 76.3612C35.6187 76.3612 37.5387 72.0412 37.7787 69.8813V58.3613Z" fill="white"/>
<path d="M53.6188 58.3613H38.4675H37.7788V68.7293C38.4675 72.8764 40.5336 75.6412 46.0432 75.6412C51.5527 75.6412 53.3892 71.494 53.6188 69.4205V58.3613Z" fill="white"/>
<path d="M20.4988 56.9199L55.0588 56.9199L55.0588 67.0879C55.0588 72.6561 51.6219 75.8253 46.2279 75.8033C42.0988 75.8253 39.0438 73.9546 38.2085 70.9174L38.0175 70.9174C37.7311 74.2847 34.3181 77.0578 29.3775 77.0798C24.0789 77.0578 20.4988 73.8445 20.4988 68.0563L20.4988 56.9199ZM22.0264 58.3725L22.0264 68.0563C22.0025 72.7661 25.0098 75.6272 29.3775 75.6272C33.9839 75.6272 37.3015 72.502 37.3015 68.0563L37.3015 58.3725L22.0264 58.3725ZM38.7813 58.3725L38.7813 67.9682C38.8051 72.1719 42.1704 74.3947 46.2279 74.3947C50.8343 74.3947 53.5552 71.6437 53.5791 67.0879L53.5791 58.3725L38.7813 58.3725Z" fill="black"/>
<path d="M51.8398 61.9586C51.8398 64.3445 50.9481 66.2786 48.9598 66.2786C46.9716 66.2786 46.0798 64.3445 46.0798 61.9586C46.0798 59.5728 46.9716 57.6387 48.9598 57.6387C50.9481 57.6387 51.8398 59.5728 51.8398 61.9586Z" fill="black"/>
<path d="M36 61.9586C36 64.3445 35.1082 66.2786 33.12 66.2786C31.1318 66.2786 30.24 64.3445 30.24 61.9586C30.24 59.5728 31.1318 57.6387 33.12 57.6387C35.1082 57.6387 36 59.5728 36 61.9586Z" fill="black"/>
<line x1="31.6802" y1="70.9588" x2="38.8802" y2="70.9588" stroke="black" stroke-width="2.15999"/>
<path d="M33.9302 74.1706C33.9302 77.4178 31.2981 80.0501 28.0513 80.0501C24.8045 80.0501 22.1724 77.4178 22.1724 74.1706C22.1724 70.9234 24.8045 68.2911 28.0513 68.2911C31.2981 68.2911 33.9302 70.9234 33.9302 74.1706Z" fill="#E1FFFD" stroke="black" stroke-width="1.14462"/>
<line x1="0.572312" y1="-0.572312" x2="2.65345" y2="-0.572312" transform="matrix(0.707072 -0.707141 0.707072 0.707141 25.0337 76.875)" stroke="white" stroke-width="1.14462" stroke-linecap="round"/>
<line x1="0.572312" y1="-0.572312" x2="4.26633" y2="-0.572312" transform="matrix(0.707072 -0.707141 0.707072 0.707141 29.6641 75.9785)" stroke="white" stroke-width="1.14462" stroke-linecap="round"/>
<path d="M49.3672 74.1706C49.3672 77.4178 46.7351 80.0501 43.4883 80.0501C40.2415 80.0501 37.6094 77.4178 37.6094 74.1706C37.6094 70.9234 40.2415 68.2911 43.4883 68.2911C46.7351 68.2911 49.3672 70.9234 49.3672 74.1706Z" fill="#E1FFFD" stroke="black" stroke-width="1.14462"/>
<line x1="0.572312" y1="-0.572312" x2="2.65345" y2="-0.572312" transform="matrix(0.707072 -0.707141 0.707072 0.707141 40.4707 76.875)" stroke="white" stroke-width="1.14462" stroke-linecap="round"/>
<line x1="0.572312" y1="-0.572312" x2="4.26633" y2="-0.572312" transform="matrix(0.707072 -0.707141 0.707072 0.707141 45.1011 75.9785)" stroke="white" stroke-width="1.14462" stroke-linecap="round"/>
<path d="M18.2964 68.1973C18.2964 68.1973 23.6098 70.1455 27.5467 72.0937C33.0642 72.0937 36.1462 72.0937 41.6752 72.0937V97.4206H27.8605L18.2964 93.5242V68.1973Z" fill="#D9D9D9"/>
<path d="M26.5476 73.0557L26.6369 73.0932H26.7337H26.7768H26.8198H26.8627H26.9056H26.9483H26.991H27.0337H27.0762H27.1187H27.1611H27.2035H27.2457H27.2879H27.3301H27.3721H27.4141H27.456H27.4979H27.5397H27.5814H27.623H27.6646H27.7061H27.7475H27.7889H27.8302H27.8715H27.9126H27.9537H27.9948H28.0357H28.0767H28.1175H28.1583H28.199H28.2396H28.2802H28.3208H28.3612H28.4016H28.4419H28.4822H28.5224H28.5626H28.6027H28.6427H28.6827H28.7226H28.7624H28.8022H28.8419H28.8816H28.9212H28.9607H29.0002H29.0396H29.079H29.1183H29.1576H29.1968H29.2359H29.275H29.314H29.353H29.3919H29.4308H29.4696H29.5083H29.547H29.5857H29.6243H29.6628H29.7013H29.7397H29.7781H29.8164H29.8547H29.8929H29.9311H29.9692H30.0073H30.0453H30.0832H30.1211H30.159H30.1968H30.2346H30.2723H30.31H30.3476H30.3852H30.4227H30.4602H30.4976H30.535H30.5723H30.6096H30.6468H30.684H30.7212H30.7583H30.7953H30.8324H30.8693H30.9063H30.9431H30.98H31.0168H31.0535H31.0903H31.1269H31.1635H31.2001H31.2367H31.2732H31.3096H31.3461H31.3824H31.4188H31.4551H31.4914H31.5276H31.5638H31.5999H31.636H31.6721H31.7081H31.7441H31.7801H31.816H31.8519H31.8877H31.9235H31.9593H31.995H32.0308H32.0664H32.1021H32.1377H32.1732H32.2088H32.2443H32.2797H32.3152H32.3506H32.386H32.4213H32.4566H32.4919H32.5271H32.5623H32.5975H32.6327H32.6678H32.7029H32.738H32.773H32.808H32.843H32.8779H32.9129H32.9478H32.9826H33.0175H33.0523H33.0871H33.1218H33.1566H33.1913H33.226H33.2607H33.2953H33.3299H33.3645H33.3991H33.4336H33.4681H33.5026H33.5371H33.5715H33.606H33.6404H33.6748H33.7091H33.7435H33.7778H33.8121H33.8464H33.8807H33.9149H33.9491H33.9833H34.0175H34.0517H34.0859H34.12H34.1541H34.1882H34.2223H34.2564H34.2904H34.3245H34.3585H34.3925H34.4265H34.4605H34.4944H34.5284H34.5623H34.5962H34.6301H34.664H34.6979H34.7318H34.7656H34.7995H34.8333H34.8671H34.901H34.9348H34.9685H35.0023H35.0361H35.0699H35.1036H35.1374H35.1711H35.2048H35.2385H35.2723H35.306H35.3397H35.3733H35.407H35.4407H35.4744H35.508H35.5417H35.5754H35.609H35.6427H35.6763H35.7099H35.7436H35.7772H35.8108H35.8445H35.8781H35.9117H35.9453H35.9789H36.0126H36.0462H36.0798H36.1134H36.147H36.1806H36.2142H36.2479H36.2815H36.3151H36.3487H36.3823H36.416H36.4496H36.4832H36.5169H36.5505H36.5841H36.6178H36.6514H36.6851H36.7187H36.7524H36.7861H36.8197H36.8534H36.8871H36.9208H36.9545H36.9882H37.0219H37.0556H37.0894H37.1231H37.1568H37.1906H37.2244H37.2581H37.2919H37.3257H37.3595H37.3933H37.4271H37.461H37.4948H37.5287H37.5626H37.5965H37.6303H37.6643H37.6982H37.7321H37.7661H37.8H37.834H37.868H37.902H37.936H37.9701H38.0041H38.0382H38.0723H38.1064H38.1405H38.1747H38.2088H38.243H38.2772H38.3114H38.3456H38.3799H38.4142H38.4484H38.4828H38.5171H38.5514H38.5858H38.6202H38.6546H38.689H38.7235H38.758H38.7925H38.827H38.8616H38.8961H38.9307H38.9653H39H39.0347H39.0693H39.1041H39.1388H39.1736H39.2084H39.2432H39.278H39.3129H39.3478H39.3828H39.4177H39.4527H39.4877H39.5228H39.5578H39.5929H39.6281H39.6632H39.6984H39.7336H39.7689H39.8042H39.8395H39.8748H39.9102H39.9456H39.9811H40.0165H40.052H40.0876H40.1232H40.1588H40.1944H40.2301H40.2658H40.3016H40.3373H40.3732H40.409H40.4449H40.4808H40.5168H40.5528H40.5888H40.6249H40.661H40.6972H40.7334H40.7696H40.8059H40.8422H40.8785H40.9149H40.9514H40.9878H41.0243H41.0609H41.0975H41.1341H41.1708H41.2075H41.2443H41.2811H41.3179H41.3548H41.3918H41.4288H41.4658H41.5028H41.54H41.5771H41.6143H41.6516H41.6889H41.7262H41.7636H41.8011H41.8385H41.8761H41.9136H41.9513H41.989H42.0267H42.0645H42.1023H42.1402H42.1781H42.2161H42.2541H42.2922H42.3303H42.3685H42.4067H42.445H42.4833H42.5217H42.5601H42.5986H42.6372H42.6758H42.7144H42.7531H42.7919H42.8307H42.8696H42.9085H42.9475H42.9865H43.0256H43.0648H43.104H43.1433H43.1826H43.222H43.2614H43.3009H43.3405H43.3801H43.4198H43.4595H43.4993H43.5392H43.5791H43.619H43.6591H43.6992H43.7393H43.7796H43.8198H43.8602H43.9006H43.9411H43.9816H44.0222H44.0629H44.1036H44.1444H44.1853H44.2262H44.2672H44.3082H44.3493H44.3905H44.4318H44.4731H44.5145H44.5559H44.5975H44.639H44.6807H44.7224H44.7642H44.8061H44.848H44.89H44.9321H44.9742H45.0165H45.0587H45.0918V100.837H27.2329L14.88 96.5593V68.8529C15.0401 68.9041 15.2282 68.9645 15.4412 69.0334C16.1855 69.2743 17.2327 69.6185 18.4435 70.0316C20.8671 70.8583 23.9383 71.9581 26.5476 73.0557Z" fill="#003C4F" stroke="#002C39" stroke-width="0.959997"/>
<path d="M51.36 96.0375L50.6287 97.278L51.915 98.0362L52.6262 96.7234L51.36 96.0375ZM42.9712 89.421C42.2861 89.0172 41.4033 89.2452 40.9995 89.9303C40.5956 90.6154 40.8236 91.4982 41.5087 91.9021L42.9712 89.421ZM56.3338 83.8317L50.0938 95.3517L52.6262 96.7234L58.8662 85.2034L56.3338 83.8317ZM52.0912 94.797L42.9712 89.421L41.5087 91.9021L50.6287 97.278L52.0912 94.797Z" fill="black"/>
<ellipse cx="14.8799" cy="85.9576" rx="1.44" ry="1.43999" fill="black"/>
<path d="M56.8947 78.6345L56.8947 78.6345L56.8907 78.6415L53.1494 85.1213C52.9858 85.4046 53.0738 85.83 53.4471 86.0455L60.9294 90.3653C61.3027 90.5809 61.715 90.4444 61.8786 90.1611L65.6389 83.6484C65.6425 83.6417 65.6462 83.6351 65.65 83.6285C66.9494 81.3774 66.1075 78.3901 63.6681 76.9817C61.2286 75.5733 58.2203 76.338 56.9205 78.5892L56.8947 78.6345Z" fill="white" stroke="black" stroke-width="1.44"/>
<path d="M134.52 44.2544C135.069 27.8311 130.072 10.9077 113.439 4.13681C93.8056 -3.85513 80.2511 11.6496 79.1685 32.7233C78.7466 40.9359 75.4848 56.0525 67.7909 60.4147C60.4491 64.5774 66.0322 66.5219 66.0322 66.5219C66.0322 66.5219 77.683 69.7936 87.4388 83.4067C94.8771 93.786 103.636 100.209 114.087 94.7769C131.035 85.9688 133.953 61.2033 134.52 44.2544Z" fill="#00C2FF" stroke="#1180A3" stroke-width="3.02399" stroke-linecap="round"/>
<path d="M98.8014 45.9264C103.967 44.0245 107.908 49.5927 108.047 53.5703C108.171 57.1469 105.941 60.7128 101.974 61.7363C99.2906 62.4286 97.3709 62.4832 95.6968 60.1462C94.2799 58.1682 95.4471 54.5206 96.9447 52.9621C99.3048 50.506 104.529 50.0628 106.856 53.3111C108.505 55.6136 109.269 58.0231 110.062 60.5938" stroke="#1180A3" stroke-width="3.02399" stroke-linecap="round"/>
<path d="M88.9417 48.1998C86.4206 39.7846 87.6103 29.1262 93.152 22.2608C103.498 9.44317 120.692 18.0696 124.9 31.9879" stroke="#1180A3" stroke-width="3.02399" stroke-linecap="round"/>
<path d="M95.2293 70.7828C106.643 85.2598 116.707 74.8667 122.522 63.5307" stroke="#1180A3" stroke-width="3.02399" stroke-linecap="round"/>
<path d="M199.355 87.4884C195.544 88.3575 196.589 94.4493 200.835 93.1694C201.429 92.9738 201.34 93.0879 201.221 93.1694C200.107 93.748 199.29 94.4997 199.29 95.9022C199.29 98.1893 201.405 99.259 203.508 98.9469C204.425 98.8109 205.128 98.4175 205.646 97.5805C206.611 96.0197 211 97.4419 211 92.4193C211 91.1734 210.779 89.9337 209.67 89.2484C209.401 89.0821 209.257 89.1888 209.527 88.8919C211.059 87.2129 209.052 84.6236 206.94 84.1361C205.038 83.6974 204.033 84.3664 202.972 85.4685C201.922 86.5595 201.866 87.8968 201.835 87.8968C200.938 87.8968 200.603 87.2038 199.355 87.4884Z" fill="white" stroke="#E6E6E6" stroke-width="2" stroke-linecap="round"/>
<path d="M129.939 66.8525C126.182 69.756 127.708 77.5264 134.945 75.1889C135.882 74.7034 135.99 75.3912 135.926 75.7958C135.863 76.2004 134.913 76.8147 134.336 77.8982C133.759 78.9818 133.133 80.2632 133.33 81.5194C134.011 85.8739 138.056 86.6775 141.858 86.6775C143.614 86.6775 145.059 86.2863 146.732 85.9871C147.673 85.8189 147.418 85.9087 148.348 86.443C154.838 90.1748 164.325 91.9816 170.597 86.7296C171.946 85.5998 172.826 84.7418 173.884 83.4934C174.269 83.0397 176.864 84.8516 177.404 85.1665C183.678 88.8281 190.277 85.3276 195.256 81.2328C199.971 77.3556 202.041 70.753 200.494 65.0192C199.981 63.1162 198.739 61.5207 197.057 60.4178C195.991 59.7186 196.061 60.0543 196.687 58.8678C199.6 53.3423 196.425 46.9273 191.494 44.0432C186.061 40.8663 180.43 41.7436 174.901 44.3442C173.076 45.2026 171.731 40 161.558 40C151.774 40.5773 152.297 47.5057 149.427 46.736C144.582 45.4364 140.263 44.1294 135.339 45.9662C132.16 47.1524 129.064 49.6572 127.513 52.5092C122.069 62.5155 133.329 63.8631 129.939 66.8525Z" fill="white" stroke="#E6E6E6" stroke-width="3" stroke-linecap="round"/>
<path d="M149.611 55C142.732 60.0036 143.576 71.0506 151.97 74.0476C157.774 76.1197 167.848 74.9697 171.041 69.0225C174.001 63.5088 165.117 59.3536 160.965 62.753C159.152 64.2375 158.694 67.8846 160.08 69.7403C163.023 73.6804 169.349 75.0246 174.039 74.7176C179.731 74.345 185 71.323 185 65.3374" stroke="#E6E6E6" stroke-width="3" stroke-linecap="round"/>
</svg>
