<svg width="40" height="40" viewBox="0 0 40 40" fill="none" xmlns="http://www.w3.org/2000/svg">
<path fill-rule="evenodd" clip-rule="evenodd" d="M30.1338 19.1188C31.1093 17.4137 31.6669 15.4388 31.6669 13.3337C31.6669 6.89034 26.4435 1.66699 20.0002 1.66699C13.5569 1.66699 8.33356 6.89034 8.33356 13.3337C8.33356 15.4388 8.89113 17.4138 9.86665 19.1188L18.4899 37.5973C19.0884 38.8798 20.912 38.8798 21.5105 37.5973L30.1338 19.1188Z" fill="black"/>
<path d="M16.0905 19.333V7.54915H20.599C23.1543 7.54915 24.4157 8.85124 24.4238 10.609C24.4157 12.0413 23.5124 12.8389 22.3568 13.1156V13.2295C23.61 13.2946 24.8796 14.3363 24.8796 16.1266C24.8796 17.9577 23.5531 19.333 20.8594 19.333H16.0905ZM18.2064 17.5589H20.5339C22.0801 17.5589 22.723 16.8997 22.7311 15.9639C22.723 14.9059 21.901 14.1003 20.5827 14.0921H18.2064V17.5589ZM18.2064 12.5622H20.3385C21.4535 12.5622 22.2998 11.9193 22.3079 10.8695C22.2998 9.96615 21.6488 9.30697 20.3874 9.30697H18.2064V12.5622Z" fill="white"/>
</svg>
