<svg width="13" height="11" viewBox="0 0 13 11" fill="none" xmlns="http://www.w3.org/2000/svg">
<path d="M2.85742 10.5L1.72266 6.125H0.273438V4.96289H1.42188L0.287109 0.601562H1.75L2.78906 4.96289H4.53906L5.63281 0.601562H7.13672L8.23047 4.96289H9.97363L11.0195 0.601562H12.4824L11.3408 4.96289H12.4961V6.125H11.04L9.89844 10.5H8.39453L7.25977 6.125H5.50977L4.375 10.5H2.85742ZM3.06934 6.125L3.5957 8.32617H3.69141L4.24512 6.125H3.06934ZM5.81738 4.96289H6.95215L6.42578 2.92578H6.34375L5.81738 4.96289ZM8.52441 6.125L9.07812 8.33984H9.16016L9.69336 6.125H8.52441Z" fill="#5D5D5D"/>
</svg>
